<svg width="41" height="40" viewBox="0 0 41 40" fill="none" xmlns="http://www.w3.org/2000/svg">
<g clip-path="url(#clip0_3063_1526)">
<path d="M12.3786 25.5043L7.43332 27.3323C7.2566 27.3975 7.07528 27.4286 6.89731 27.4286C6.26833 27.4286 5.67716 27.0422 5.44638 26.4178C5.15021 25.6164 5.55974 24.7269 6.3609 24.4307L11.9401 22.3683C10.8292 20.7766 8.98534 19.7344 6.89707 19.7344C3.50209 19.7343 0.75 22.4864 0.75 25.8814C0.75 29.2764 3.50209 32.0284 6.89707 32.0284C10.0825 32.0284 12.7019 29.6053 13.013 26.5019C12.7477 26.1479 12.5342 25.7919 12.3786 25.5043Z" fill="#212427"/>
<path d="M34.6044 19.7341C34.5658 19.7341 34.5278 19.7363 34.4894 19.737L36.0938 25.4638C36.3242 26.2864 35.8442 27.14 35.0217 27.3703C34.8821 27.4094 34.7416 27.4281 34.6036 27.4281C33.9273 27.4281 33.3064 26.9813 33.1149 26.2982L31.5102 20.5702C32.3881 20.0576 33.4042 19.7568 34.4894 19.7368L33.3092 15.5242C33.354 15.5199 33.3989 15.5129 33.4437 15.5003C33.855 15.385 34.0949 14.9582 33.9798 14.5469L33.373 12.3809C33.2578 11.9697 32.8312 11.7297 32.4197 11.8448C32.3749 11.8574 32.3327 11.8742 32.2923 11.8937L31.7066 9.80412C31.5466 9.23311 31.0741 8.80374 30.4904 8.69897L26.5695 7.99522C25.7296 7.8446 24.9247 8.40343 24.774 9.24436C24.623 10.0851 25.1823 10.8891 26.0231 11.04L28.9894 11.5724L29.4198 13.1088L26.5489 13.834C26.163 13.4237 25.5672 13.2384 24.99 13.4064L23.3402 13.8861C22.8244 14.0361 22.4469 14.4314 22.2967 14.908L18.8863 15.7694L7.23538 13.1706C6.40179 12.9843 5.57492 13.5097 5.38898 14.3434C5.20305 15.1772 5.72812 16.0039 6.56195 16.1898L10.7362 17.121L13.5517 17.7491L16.3675 20.565C16.6516 20.8492 16.6708 21.3036 16.4117 21.6107L13.7442 24.7711C14.1942 25.5881 14.9054 26.4809 15.4171 26.4809H24.0315C25.0072 26.4809 25.9243 26.1009 26.6142 25.4111C27.304 24.7212 27.684 23.804 27.684 22.8284V16.7378L29.2307 16.3471L30.2546 16.0885L31.5102 20.5703C30.5564 21.1273 29.7665 21.9336 29.229 22.8997C28.7894 23.6897 28.5194 24.5867 28.4674 25.5421C28.4613 25.6543 28.4574 25.7672 28.4574 25.881C28.4574 29.276 31.2095 32.0281 34.6044 32.0281C37.9994 32.0281 40.7515 29.276 40.7515 25.881C40.7515 22.486 37.9993 19.7341 34.6044 19.7341Z" fill="#212427"/>
</g>
<defs>
<clipPath id="clip0_3063_1526">
<rect width="40" height="40" fill="white" transform="translate(0.75)"/>
</clipPath>
</defs>
</svg>
