<svg width="41" height="40" viewBox="0 0 41 40" fill="none" xmlns="http://www.w3.org/2000/svg">
<g clip-path="url(#clip0_3063_1666)">
<path d="M20.5 0C9.455 0 0.5 8.955 0.5 20C0.5 31.045 9.455 40 20.5 40C31.545 40 40.5 31.045 40.5 20C40.5 8.955 31.545 0 20.5 0ZM20.5 1.3C30.8267 1.3 39.1983 9.67167 39.1983 20C39.1983 30.3267 30.8283 38.6983 20.5 38.6983C10.1717 38.6983 1.80167 30.3267 1.80167 20C1.80167 9.67333 10.1733 1.3 20.5 1.3ZM19.37 2.35C18.82 2.37333 18.27 2.42 17.7167 2.48L17.5383 7.38667C17.9308 7.32026 18.3255 7.268 18.7217 7.23L18.8383 3.91667L18.8167 3.68833L18.8883 3.905L19.995 6.38667H21.005L22.1117 3.90667L22.1783 3.68833L22.1617 3.91667L22.2783 7.23C22.665 7.26667 23.0667 7.32 23.4617 7.38667L23.28 2.48C22.7305 2.41808 22.1791 2.37472 21.6267 2.35L20.5383 5.05833L20.5 5.25833L20.4617 5.05833L19.37 2.35ZM30.53 5.39L27.9583 9.43667C28.2833 9.68667 28.7117 10.055 28.9867 10.3067L31.4083 9.05L31.5617 8.935L31.4467 9.09167L30.1933 11.5133C30.465 11.805 30.8567 12.2767 31.0767 12.5633L35.1267 9.99C34.8783 9.6687 34.6227 9.35306 34.36 9.04333L31.795 10.7333L31.62 10.8867L31.75 10.695L32.8833 8.435L32.0833 7.635L29.8233 8.76833L29.6317 8.89833L29.7833 8.72167L31.48 6.15667C31.18 5.90333 30.895 5.67167 30.53 5.39ZM9.66667 6.30833C9.06667 6.37 8.60333 6.78 7.345 8.18333C6.90866 8.67783 6.4879 9.18585 6.08333 9.70667L9.54 12.985C10.685 11.7183 11.15 11.2483 12.0533 10.2967C12.6917 9.62167 13.0533 8.84667 12.4133 8.10167C12.0667 7.69833 11.4833 7.61 10.9967 7.81L10.95 7.82667L10.9667 7.78333C11.0268 7.56219 11.0204 7.32823 10.9484 7.11068C10.8764 6.89312 10.7419 6.70159 10.5617 6.56C10.4364 6.46124 10.2928 6.3883 10.1392 6.34539C9.98557 6.30248 9.82497 6.28878 9.66667 6.30833ZM9.67667 7.33333C9.90333 7.27167 10.1383 7.43333 10.19 7.66667C10.2433 7.9 10.0967 8.12 9.93333 8.30333C9.56667 8.72 8.215 10.1333 8.215 10.1333L7.545 9.495C8.24 8.645 8.98 7.87167 9.315 7.565C9.41551 7.46023 9.53947 7.38082 9.67667 7.33333ZM20.5 8.13833C17.564 8.13704 14.7319 9.22511 12.5521 11.1919C10.3722 13.1587 8.99963 15.8643 8.7 18.785V18.7883C8.51167 20.6413 8.76203 22.5126 9.43085 24.2509C10.0997 25.9893 11.1682 27.5458 12.5499 28.7947C13.9317 30.0436 15.588 30.9498 17.3849 31.44C19.1817 31.9303 21.0688 31.9908 22.8933 31.6167C25.5678 31.0669 27.9705 29.6107 29.6953 27.4941C31.4202 25.3775 32.3614 22.7304 32.36 20C32.3569 16.8556 31.1063 13.841 28.8828 11.6177C26.6592 9.39447 23.6444 8.14431 20.5 8.14167V8.13833ZM11.2717 8.54167C11.35 8.54167 11.4317 8.56333 11.505 8.61333C11.6517 8.71167 11.7183 8.88 11.6817 9.04667C11.6383 9.245 11.4733 9.43167 11.34 9.57667L9.59833 11.4433L8.89833 10.7767C8.89833 10.7767 10.21 9.39 10.64 8.945C10.81 8.76833 10.92 8.66167 11.0367 8.60333C11.1089 8.56581 11.1903 8.54475 11.2717 8.54167ZM20.5 9.69667C21.8535 9.69513 23.194 9.96059 24.4447 10.4778C25.6955 10.9951 26.8319 11.754 27.789 12.711C28.746 13.6681 29.5049 14.8045 30.0222 16.0553C30.5394 17.306 30.8049 18.6465 30.8033 20H20.5V30.3033C19.1465 30.3049 17.806 30.0394 16.5553 29.5222C15.3045 29.0049 14.1681 28.246 13.211 27.289C12.254 26.3319 11.4951 25.1955 10.9778 23.9447C10.4606 22.694 10.1951 21.3535 10.1967 20H20.5V9.69667Z" fill="#379D67"/>
</g>
<defs>
<clipPath id="clip0_3063_1666">
<rect width="40" height="40" fill="white" transform="translate(0.5)"/>
</clipPath>
</defs>
</svg>
