<svg width="24" height="24" viewBox="0 0 24 24" fill="none" xmlns="http://www.w3.org/2000/svg">
<g clip-path="url(#clip0_3003_712)">
<path d="M17.0192 21.2897L13.5392 19.5497C12.5692 19.0697 11.4392 19.0697 10.4692 19.5497L6.98918 21.2897C3.99918 22.7797 0.84918 19.5697 2.40918 16.6197L3.22918 15.0797C3.33918 14.8697 3.51918 14.6997 3.73918 14.5997L16.3792 8.89969C16.8992 8.66969 17.5092 8.87969 17.7692 9.37969L21.5792 16.6197C23.1392 19.5697 19.9992 22.7797 17.0192 21.2897Z" fill="#379D67"/>
<path d="M15.6004 7.68953L7.32045 11.4195C6.39045 11.8395 5.45045 10.8395 5.93045 9.93953L8.97045 4.16953C10.2604 1.71953 13.7604 1.71953 15.0504 4.16953L16.1204 6.20953C16.4004 6.75953 16.1604 7.43953 15.6004 7.68953Z" fill="#379D67"/>
</g>
<defs>
<clipPath id="clip0_3003_712">
<rect width="24" height="24" fill="white"/>
</clipPath>
</defs>
</svg>
