<svg width="41" height="40" viewBox="0 0 41 40" fill="none" xmlns="http://www.w3.org/2000/svg">
<g clip-path="url(#clip0_3085_4075)">
<path d="M13.813 14.6747C14.513 14.5622 15.267 14.4914 16.0588 14.458V16.3829H10.4922C11.6255 15.6122 12.7339 15.0371 13.813 14.6747Z" fill="#212427"/>
<path d="M21.109 14.7128C22.4631 15.1003 23.6089 15.6503 24.5715 16.3836H17.7383V14.4502C18.7923 14.4794 19.9132 14.5628 21.109 14.7128Z" fill="#212427"/>
<path d="M38.0917 18.7499C35.8959 17.4125 33.3876 16.4875 30.4211 15.9291C30.0626 15.8583 29.5544 15.6999 29.2044 15.3333C27.3877 13.4542 25.0253 12.1209 22.1754 11.3667C21.3261 11.1545 15.5109 10.6266 12.5215 11.3751C10.2173 12.0918 7.88405 13.4292 5.58826 15.3458C5.28834 15.5917 4.91748 15.7291 4.53826 15.7291H3.54662C2.51748 15.7291 1.59662 16.3582 1.25084 17.2999C0.496624 19.3415 0.167483 21.3664 0.267483 23.3164C0.359202 25.0497 1.72162 26.4371 3.46334 26.6664C3.36334 26.2706 3.30912 25.8539 3.30912 25.4289C3.30912 22.5331 5.75076 20.1789 8.75069 20.1789C11.7547 20.1789 14.1964 22.533 14.1964 25.4289C14.1964 25.8664 14.138 26.2955 14.0339 26.6997H26.467C26.3629 26.2956 26.3045 25.8664 26.3045 25.4289C26.3045 22.5331 28.7461 20.1789 31.7461 20.1789C34.7461 20.1789 37.1876 22.533 37.1876 25.4289C37.1876 25.8664 37.1293 26.2955 37.0251 26.6997H37.8584C39.1793 26.6997 40.2501 25.6748 40.2501 24.4123V22.4789C40.25 20.9666 39.4416 19.575 38.0917 18.7499ZM27.5461 17.4875C27.4336 17.825 27.1169 18.05 26.7587 18.05H7.99647C7.63397 18.05 7.31319 17.8166 7.20069 17.4708C7.0924 17.1292 7.21733 16.75 7.50897 16.5417C9.12256 15.3307 10.7549 13.9361 13.3505 13.0709C14.9376 12.5946 20.4664 12.7837 21.4919 13.0917C25.1518 14.1142 26.3751 15.8649 27.2668 16.5582C27.5502 16.775 27.6627 17.15 27.5461 17.4875Z" fill="#212427"/>
<path d="M31.7476 21.8457C29.6643 21.8457 27.9727 23.4541 27.9727 25.429C27.9727 27.408 29.6642 29.0164 31.7476 29.0164C33.8309 29.0164 35.5225 27.4081 35.5225 25.429C35.5225 23.4541 33.8309 21.8457 31.7476 21.8457Z" fill="#212427"/>
<path d="M8.75539 21.8457C6.67625 21.8457 4.98047 23.4541 4.98047 25.429C4.98047 27.408 6.67633 29.0164 8.75539 29.0164C10.8387 29.0164 12.5345 27.4081 12.5345 25.429C12.5345 23.4541 10.8387 21.8457 8.75539 21.8457Z" fill="#212427"/>
</g>
<defs>
<clipPath id="clip0_3085_4075">
<rect width="40" height="40" fill="white" transform="translate(0.25)"/>
</clipPath>
</defs>
</svg>
