<svg width="41" height="40" viewBox="0 0 41 40" fill="none" xmlns="http://www.w3.org/2000/svg">
<g clip-path="url(#clip0_3063_1105)">
<path d="M20.5624 12.5234C9.60859 12.5234 0.808594 15.8157 0.808594 19.9388C0.808594 24.0311 9.67013 27.3542 20.5624 27.3542C31.4547 27.3542 40.3163 24.0311 40.3163 19.9388C40.3471 15.8773 31.4547 12.5234 20.5624 12.5234ZM20.5624 26.7081C10.1009 26.7081 1.63936 23.6927 1.63936 19.9388C1.63936 16.2157 10.1317 13.1696 20.5624 13.1696C31.024 13.1696 39.4855 16.185 39.4855 19.9388C39.5163 23.6927 31.024 26.7081 20.5624 26.7081ZM28.3471 21.4465C28.3471 21.4773 28.3471 21.5081 28.3471 21.5081C28.3471 21.5388 28.4086 21.5696 28.4394 21.6004C28.4394 21.6004 28.4701 21.6311 28.4394 21.6619C28.3163 21.9388 28.1932 22.0927 28.0394 22.3081C27.8855 22.5234 27.7317 22.6773 27.5471 22.8311C27.2701 23.0773 26.8394 23.3234 26.5009 23.1696C26.3471 23.0773 26.2855 22.8927 26.2855 22.7081C26.2855 22.2465 26.5009 21.7542 26.9009 21.2619C27.3624 20.6773 27.9163 20.3696 28.2547 20.5542C28.624 20.7081 28.5317 21.1388 28.3471 21.4465ZM18.5624 18.3696C18.5317 18.185 18.5932 17.9696 18.7778 17.8157C18.8701 17.7234 18.9932 17.7234 19.0855 17.785C19.1778 17.8465 19.1163 18.0311 19.0547 18.185C18.9624 18.3388 18.8086 18.4619 18.6547 18.4619C18.5932 18.4311 18.5624 18.4311 18.5624 18.3696ZM20.5624 13.7542C10.4701 13.7542 2.28552 16.5542 2.28552 19.9696C2.28552 23.3542 10.4701 26.1542 20.5624 26.1542C30.6547 26.1542 38.8394 23.3542 38.8394 19.9388C38.8394 16.5234 30.6547 13.7542 20.5624 13.7542ZM11.1778 24.0311C10.1009 24.0311 9.14706 23.385 9.02398 22.2157C8.96244 21.5696 9.14706 21.0157 9.51629 20.5234C9.82398 20.0927 10.3778 19.7542 10.8394 19.6619C10.9932 19.6311 11.1778 19.6619 11.2701 19.7542C11.3932 19.9081 11.3624 20.0619 11.2394 20.1542C10.9009 20.3388 10.4701 20.6465 10.2547 21.0465C10.0701 21.385 10.0394 21.8157 10.3163 22.185C10.7471 22.8311 11.9471 22.8619 13.0855 21.8157C13.3624 21.5696 13.6086 21.3234 13.8547 21.0157C14.3471 20.4619 14.5009 20.2465 15.1778 19.3234V19.2927C15.1778 19.2927 15.1778 19.2927 15.1471 19.2619C14.7163 19.2619 14.3163 19.4157 13.9471 19.6927C13.8547 19.785 13.7009 19.7542 13.6086 19.6619C13.5471 19.5388 13.5778 19.385 13.7009 19.3234C14.2855 18.8927 14.9624 18.8311 15.6086 18.7081C15.6086 18.7081 15.6701 18.7081 15.7009 18.6465C15.9778 18.3081 16.1932 17.9696 16.4701 17.6311C16.7778 17.2619 17.1471 16.9542 17.424 16.6773C17.824 16.3388 18.1009 16.2157 18.3471 16.0619C18.4086 16.0311 18.3471 15.9696 18.3163 15.9696C16.8394 15.6927 15.3009 15.3234 13.8547 15.8773C12.8394 16.2465 12.4086 17.0465 12.624 17.6004C12.7778 17.9696 13.2701 18.0311 13.7624 17.8157C14.1624 17.6311 14.5009 17.3234 14.7778 16.9234C14.9317 16.7081 15.2086 16.8619 15.0547 17.2311C14.624 18.2465 13.7932 19.0465 12.8086 19.0773C11.9471 19.1081 11.424 18.4927 11.424 17.7234C11.424 16.2157 13.1163 15.2004 14.9009 15.0465C17.0547 14.8619 19.0855 15.4465 21.2086 15.6927C22.8394 15.8773 24.4086 15.9081 26.0394 15.5081C26.224 15.4773 26.3778 15.6004 26.3471 15.785C26.3163 16.0619 26.1009 16.3388 25.5778 16.6465C24.9624 16.985 24.3163 17.0773 23.6394 17.0773C22.0086 17.0773 20.5009 16.4619 18.9317 16.1234C18.9317 16.185 18.9624 16.2773 18.9009 16.3081C18.0394 16.9542 17.2394 17.6004 16.7163 18.4927C16.6855 18.5234 16.7163 18.5234 16.7471 18.5234C17.2086 18.4927 17.6086 18.4927 18.0394 18.4619C18.1009 18.4619 18.1009 18.4311 18.1009 18.3696C18.0701 18.0619 18.1624 17.6927 18.4394 17.4465C18.7163 17.2004 19.0855 17.1696 19.3009 17.3542C19.5778 17.5696 19.5471 17.9388 19.3932 18.2157C19.2394 18.4927 18.9932 18.6465 18.7778 18.7388C18.7778 18.7388 18.7163 18.7388 18.7471 18.8004C18.7471 18.8619 19.0855 19.0465 19.1163 19.1081C19.1471 19.1388 19.1163 19.2311 19.0855 19.2619C19.0547 19.2927 18.9932 19.3234 18.9317 19.3234C18.8701 19.3234 18.8394 19.2927 18.7778 19.2619C18.624 19.1696 18.4394 19.0465 18.3471 18.8927C18.3163 18.8311 18.2855 18.8311 18.1932 18.8311C17.7317 18.8619 17.024 18.9234 16.5317 18.985C16.4086 18.985 16.4086 19.0157 16.3778 19.0773C15.6086 20.3388 14.7778 21.7234 13.8547 22.6465C12.8701 23.7542 12.0394 24.0311 11.1778 24.0311ZM32.1932 17.8157C32.0394 18.0619 29.1471 22.4927 28.9624 22.9234C28.9009 23.0773 28.9009 23.1696 28.9624 23.2619C29.1163 23.4773 29.4547 23.3542 29.6701 23.2004C30.2855 22.7696 30.7163 22.2465 31.2086 21.785C31.2394 21.7542 31.2701 21.7542 31.3009 21.785C31.3624 21.8465 31.4855 21.9388 31.5471 22.0004C31.5778 22.0311 31.5778 22.0619 31.5471 22.0927C31.0855 22.6773 30.5624 23.2004 30.0701 23.6004C29.3009 24.185 28.5317 24.3388 28.1317 23.9696C27.9778 23.8157 27.9163 23.6311 27.9163 23.4465C27.9163 23.3542 27.8547 23.3542 27.824 23.385C27.3624 23.8465 26.5624 24.3388 25.8547 23.9696C25.2394 23.6619 25.1163 22.9542 25.2394 22.3388C25.2394 22.3388 25.2394 22.2465 25.1471 22.2773C25.024 22.3696 24.8701 22.4619 24.6547 22.5542C24.4086 22.6465 24.2855 22.6773 24.0394 22.6773C23.7317 22.6773 23.4855 22.5542 23.3009 22.2465C23.2086 22.0927 23.1471 21.8465 23.1471 21.6619C23.1471 21.6311 23.1163 21.6004 23.0855 21.6619C22.5932 22.4004 22.1317 23.1388 21.6394 23.9081C21.6086 23.9388 21.5778 23.9696 21.5471 23.9696C21.2394 23.9696 20.9009 23.9696 20.5932 23.9696C20.5317 23.9696 20.5009 23.9388 20.5317 23.8773C20.7163 23.5388 21.6394 22.185 22.2855 21.0157C22.4701 20.7081 22.4394 20.5234 22.3163 20.4619C22.1932 20.3696 21.9163 20.4927 21.6701 20.6773C21.0547 21.1388 20.5317 21.8773 20.2547 22.2157C20.1009 22.4004 19.9471 22.7081 19.5471 23.1388C18.9009 23.8465 18.0394 24.2465 17.2394 23.9696C16.7778 23.8157 16.4701 23.4465 16.3471 23.0157C16.3163 22.9234 16.2855 22.8927 16.224 22.9542C16.1009 23.1081 15.824 23.3542 15.5778 23.5081C15.5471 23.5388 15.4855 23.5696 15.424 23.5388C15.3624 23.5081 15.2086 23.2927 15.1778 23.2004C15.1471 23.1388 15.1778 23.1081 15.2086 23.0773C15.5471 22.8004 15.7009 22.6157 15.8547 22.4619C15.9471 22.3388 16.0394 22.185 16.1317 21.9388C16.3163 21.4465 16.7778 20.5234 17.6701 20.0311C18.0086 19.8465 18.3471 19.7234 18.7471 19.6619C18.9009 19.6311 19.0547 19.6619 19.0855 19.785C19.1163 19.8465 19.1471 19.9696 19.1778 20.0311C19.2086 20.0927 19.1778 20.1234 19.1163 20.1542C18.5932 20.3696 18.0701 20.6773 17.7009 21.1696C17.2701 21.7234 17.1778 22.4004 17.4547 22.7696C17.6701 23.0465 17.9778 23.1081 18.3163 22.985C18.8086 22.8311 19.2086 22.4004 19.424 21.8773C19.6394 21.3234 19.7009 20.7081 19.5163 20.1234C19.4855 20.0311 19.5163 19.9388 19.5778 19.9081C19.7009 19.8157 19.8855 19.7234 19.9163 19.6927C20.0394 19.6311 20.1624 19.6619 20.224 19.7542C20.4086 20.0004 20.5009 20.3696 20.5009 20.7696C20.5009 20.8619 20.5317 20.8619 20.5932 20.8004C20.9009 20.4619 21.2086 20.1234 21.5163 19.8465C21.824 19.6004 22.224 19.4157 22.5624 19.4157C23.024 19.4157 23.2701 19.7542 23.2394 20.3081C23.2394 20.3696 23.3009 20.3696 23.3317 20.3388C23.4855 20.1234 23.5778 20.0311 23.7317 19.9081C24.0701 19.6311 24.3778 19.5081 24.7471 19.5388C25.1778 19.5696 25.5163 19.9696 25.4547 20.4004C25.424 20.6773 25.2394 20.9542 24.9932 21.0773C24.7778 21.2004 24.5009 21.1696 24.3163 21.0157C24.1624 20.8927 24.1317 20.6773 24.1624 20.4927C24.1624 20.4619 24.1317 20.4004 24.0701 20.4619C23.6394 20.8927 23.6086 21.4465 23.8855 21.7234C24.1932 22.0004 24.624 21.8157 24.9624 21.6004C25.5778 21.2004 26.0394 20.6773 26.5624 20.2465C26.9317 19.9696 27.3317 19.7234 27.7932 19.6619C28.0394 19.6311 28.2855 19.6311 28.5317 19.7542C28.8701 19.8773 29.0547 20.1542 29.0855 20.4004C29.0855 20.4619 29.1471 20.4927 29.1778 20.4311C29.424 20.0311 30.8394 17.9388 30.9624 17.7234C30.9932 17.6619 31.024 17.6311 31.1163 17.6311C31.424 17.6311 31.824 17.6311 32.1009 17.6311C32.1932 17.7542 32.1932 17.785 32.1932 17.8157Z" fill="#212427"/>
</g>
<defs>
<clipPath id="clip0_3063_1105">
<rect width="40" height="40" fill="white" transform="translate(0.5)"/>
</clipPath>
</defs>
</svg>
