<svg width="41" height="40" viewBox="0 0 41 40" fill="none" xmlns="http://www.w3.org/2000/svg">
<g clip-path="url(#clip0_3063_1677)">
<path d="M20.4699 30.3198C31.4995 30.3198 40.4321 25.7328 40.4321 20.0807C40.4321 14.4286 31.4995 9.83691 20.4699 9.83691C9.44509 9.83691 0.507812 14.4239 0.507812 20.076C0.507812 25.728 9.44509 30.3198 20.4699 30.3198ZM24.2191 25.2878C23.8924 26.0547 23.3149 27.7067 22.0037 28.36C21.6013 28.5493 21.1043 28.6487 20.6735 28.663C20.5741 28.6772 20.5078 28.663 20.4841 28.663C16.7966 28.663 13.3694 28.1612 10.496 27.2807C10.4723 27.2665 10.406 27.2428 10.406 27.2428C10.1173 27.1529 9.98 27.0298 9.98 26.8783C9.98 26.7505 10.0415 26.6511 10.1457 26.5517C10.1836 26.5138 10.2451 26.4618 10.3208 26.386C10.9741 25.8322 12.9907 24.3837 16.735 22.9304C18.0605 22.4286 19.7078 21.799 21.4356 21.4298C22.4581 21.2357 26.212 20.6724 24.2191 25.2878ZM34.3256 14.973C34.3871 14.8452 34.4912 14.7363 34.6664 14.7363C34.7658 14.7221 34.8794 14.7505 35.0688 14.8736C37.412 16.3174 38.8131 18.1209 38.8131 20.076C38.8131 23.6121 34.2782 26.6416 27.8025 27.9718C27.3859 28.0618 27.1114 28.0618 27.012 27.9482C26.9504 27.8724 26.922 27.773 27.012 27.6357C27.0498 27.56 27.1019 27.4985 27.1871 27.4085C30.7185 23.2428 33.412 17.0937 34.1646 15.3091C34.212 15.1624 34.2688 15.0487 34.3256 14.973ZM16.7824 14.8357C17.109 14.0689 17.6865 12.4168 18.9978 11.7635C19.4001 11.5647 19.8972 11.4748 20.3279 11.4606C20.4273 11.4606 20.5031 11.4606 20.5267 11.4606C24.2001 11.4606 27.6321 11.9766 30.5007 12.8428C30.5244 12.8428 30.5907 12.8665 30.6143 12.8807C30.8794 12.9706 31.0167 13.0937 31.0167 13.2452C31.0167 13.3825 30.9409 13.4724 30.851 13.5718C30.8131 13.6097 30.7516 13.6712 30.6759 13.7375C30.0084 14.2914 28.0202 15.7399 24.2617 17.1742C22.9362 17.6902 21.2889 18.3056 19.5611 18.689C18.5386 18.8925 14.7895 19.4606 16.7824 14.8357ZM13.1658 12.1801C13.5824 12.0902 13.909 12.0902 13.9942 12.2038C14.0557 12.2653 14.0841 12.3789 13.9942 12.5162C13.9563 12.5919 13.9043 12.6535 13.8285 12.7529C10.2924 16.9186 7.60367 23.0677 6.85101 24.8381C6.78947 24.9659 6.7374 25.089 6.68533 25.1647C6.60959 25.2925 6.51018 25.3919 6.3445 25.4014C6.25456 25.4014 6.13148 25.3777 5.92793 25.2641C3.58474 23.8203 2.14095 22.0168 2.14095 20.0618C2.15988 16.5399 6.69479 13.5056 13.1658 12.1801Z" fill="#212427"/>
<path d="M20.4699 9.83691C9.44509 9.83691 0.507812 14.4097 0.507812 20.0618C0.507812 25.7138 9.44509 30.2866 20.4699 30.2866C31.4995 30.2866 40.4321 25.6996 40.4321 20.0618C40.4321 14.4097 31.4995 9.83691 20.4699 9.83691ZM34.3445 26.7411C30.6569 28.6298 25.7338 29.676 20.4747 29.676C15.2155 29.676 10.3019 28.6251 6.61432 26.7411C3.06403 24.9138 1.11846 22.5517 1.11846 20.0712C1.11846 17.5908 3.07349 15.2239 6.61905 13.3967C10.3066 11.4937 15.2297 10.4618 20.4889 10.4618C25.748 10.4618 30.6664 11.5032 34.3587 13.3967C37.9137 15.2239 39.8593 17.5908 39.8593 20.0665C39.8593 22.5422 37.8995 24.9138 34.3445 26.7411Z" fill="#212427"/>
</g>
<defs>
<clipPath id="clip0_3063_1677">
<rect width="40" height="40" fill="white" transform="translate(0.5)"/>
</clipPath>
</defs>
</svg>
