<svg width="41" height="40" viewBox="0 0 41 40" fill="none" xmlns="http://www.w3.org/2000/svg">
<g clip-path="url(#clip0_3063_3766)">
<path d="M23.7089 23.6256C23.7089 23.7023 23.7339 23.7456 23.7772 23.7456C23.8124 23.7409 23.8457 23.7271 23.8739 23.7056L36.3406 15.6156C36.5512 15.4681 36.8036 15.3922 37.0606 15.3989H39.8006C40.2206 15.3989 40.5039 15.6789 40.5039 16.0989V21.3306C40.5039 21.9639 40.3639 22.3306 39.8039 22.6656L36.4806 24.6656C36.4475 24.6885 36.409 24.7023 36.3689 24.7056C36.3289 24.7056 36.2889 24.6739 36.2889 24.5589V18.4539C36.2889 18.3823 36.2689 18.3356 36.2206 18.3356C36.1852 18.3395 36.1517 18.3534 36.1239 18.3756L27.0139 24.2939C26.8077 24.4343 26.5634 24.5082 26.3139 24.5056H20.2739C19.8506 24.5056 19.5706 24.2256 19.5706 23.8023V16.2623C19.5706 16.2073 19.5456 16.1556 19.4972 16.1556C19.4626 16.1603 19.4298 16.1741 19.4022 16.1956L13.3906 19.8006C13.3306 19.8406 13.3139 19.8689 13.3139 19.8973C13.3139 19.9206 13.3272 19.9456 13.3672 19.9889L17.6622 24.2806C17.7189 24.3373 17.7589 24.3806 17.7589 24.4289C17.7589 24.4689 17.6939 24.5006 17.6189 24.5006H13.7372C13.4322 24.5006 13.1972 24.4573 13.0322 24.2923L10.4289 21.6923C10.419 21.6805 10.4069 21.6708 10.3931 21.6639C10.3793 21.657 10.3643 21.6531 10.3489 21.6523C10.3206 21.6539 10.2931 21.6625 10.2689 21.6773L5.91891 24.2939C5.7109 24.4337 5.46437 24.5048 5.21391 24.4973H1.21224C0.783906 24.5006 0.503906 24.2173 0.503906 23.7989V18.6656C0.503906 18.0323 0.643906 17.6656 1.20724 17.3323L4.55391 15.3206C4.57988 15.3041 4.60982 15.2949 4.64057 15.2939C4.69391 15.2939 4.72057 15.3439 4.72057 15.4606V22.3339C4.72057 22.4056 4.73724 22.4389 4.78891 22.4389C4.82484 22.4334 4.85903 22.4197 4.88891 22.3989L16.1822 15.6006C16.4012 15.4532 16.662 15.3807 16.9256 15.3939H23.0056C23.4256 15.3939 23.7089 15.6739 23.7089 16.0939L23.7056 23.6239L23.7089 23.6256Z" fill="#212427"/>
</g>
<defs>
<clipPath id="clip0_3063_3766">
<rect width="40" height="40" fill="white" transform="translate(0.5)"/>
</clipPath>
</defs>
</svg>
