<svg width="18" height="18" viewBox="0 0 18 18" fill="none" xmlns="http://www.w3.org/2000/svg">
<path d="M2.99265 10.9958L1.85266 9.8558C1.38766 9.3908 1.38766 8.62579 1.85266 8.16079L2.99265 7.02078C3.18765 6.82578 3.34515 6.44327 3.34515 6.17327V4.56076C3.34515 3.90076 3.88515 3.36077 4.54515 3.36077H6.15765C6.42765 3.36077 6.81015 3.2033 7.00515 3.0083L8.14514 1.86828C8.61014 1.40328 9.37515 1.40328 9.84015 1.86828L10.9802 3.0083C11.1752 3.2033 11.5576 3.36077 11.8276 3.36077H13.4402C14.1002 3.36077 14.6401 3.90076 14.6401 4.56076V6.17327C14.6401 6.44327 14.7976 6.82578 14.9926 7.02078L16.1327 8.16079C16.5977 8.62579 16.5977 9.3908 16.1327 9.8558L14.9926 10.9958C14.7976 11.1908 14.6401 11.5733 14.6401 11.8433V13.4557C14.6401 14.1157 14.1002 14.6558 13.4402 14.6558H11.8276C11.5576 14.6558 11.1752 14.8133 10.9802 15.0083L9.84015 16.1483C9.37515 16.6133 8.61014 16.6133 8.14514 16.1483L7.00515 15.0083C6.81015 14.8133 6.42765 14.6558 6.15765 14.6558H4.54515C3.88515 14.6558 3.34515 14.1157 3.34515 13.4557V11.8433C3.34515 11.5658 3.18765 11.1833 2.99265 10.9958Z" stroke="#212427" stroke-width="1.5" stroke-linecap="round" stroke-linejoin="round"/>
<path d="M6.75 11.25L11.25 6.75" stroke="#212427" stroke-width="1.5" stroke-linecap="round" stroke-linejoin="round"/>
<path d="M10.8709 10.875H10.8776" stroke="#212427" stroke-width="1.5" stroke-linecap="round" stroke-linejoin="round"/>
<path d="M7.12088 7.125H7.12762" stroke="#212121" stroke-width="1.5" stroke-linecap="round" stroke-linejoin="round"/>
</svg>
