<svg width="248" height="240" viewBox="0 0 248 240" fill="none" xmlns="http://www.w3.org/2000/svg">
<ellipse cx="127.102" cy="120.444" rx="94.0359" ry="94.0003" fill="url(#paint0_linear_911_13171)"/>
<ellipse cx="237.996" cy="36.667" rx="10.0038" ry="10" fill="url(#paint1_linear_911_13171)"/>
<ellipse cx="26.6705" cy="13.3334" rx="13.3384" ry="13.3334" fill="url(#paint2_linear_911_13171)"/>
<ellipse cx="13.3333" cy="177.334" rx="6.66921" ry="6.66668" fill="url(#paint3_linear_911_13171)"/>
<ellipse cx="220.749" cy="213.999" rx="3.33461" ry="3.33334" fill="url(#paint4_linear_911_13171)"/>
<path d="M127.306 77.2422C134.703 77.2423 141.797 80.1803 147.028 85.4092C152.259 90.6381 155.198 97.7302 155.198 105.125C155.198 107.409 154.556 110.138 153.45 113.136C152.346 116.129 150.788 119.368 148.976 122.663C145.352 129.252 140.73 136.044 136.739 141.524L136.738 141.525C136.738 141.526 136.737 141.528 136.735 141.529C136.733 141.532 136.73 141.537 136.726 141.543C136.716 141.555 136.703 141.573 136.686 141.597C136.65 141.644 136.598 141.712 136.531 141.801C136.398 141.978 136.208 142.232 135.977 142.539C135.514 143.154 134.89 143.983 134.241 144.844C132.942 146.567 131.552 148.405 131.171 148.89L131.17 148.892C130.712 149.479 130.126 149.954 129.456 150.281C128.787 150.608 128.051 150.778 127.306 150.778C126.56 150.778 125.824 150.608 125.154 150.281C124.485 149.954 123.898 149.479 123.44 148.892L123.439 148.89C123.058 148.405 121.668 146.567 120.369 144.844C119.721 143.983 119.096 143.154 118.634 142.539C118.403 142.232 118.212 141.978 118.079 141.801C118.013 141.713 117.961 141.644 117.926 141.597C117.908 141.573 117.894 141.555 117.885 141.543C117.88 141.537 117.877 141.532 117.875 141.529C117.874 141.528 117.873 141.526 117.872 141.525L117.871 141.524C113.88 136.044 109.258 129.252 105.635 122.663C103.823 119.368 102.265 116.129 101.16 113.136C100.054 110.138 99.4122 107.409 99.4121 105.125C99.4121 97.7302 102.351 90.6381 107.582 85.4092C112.813 80.1802 119.908 77.2422 127.306 77.2422ZM127.305 92.415C124.853 92.4179 122.502 93.3929 120.769 95.126C119.035 96.8593 118.059 99.2099 118.057 101.661L118.062 102.004C118.126 103.713 118.662 105.373 119.615 106.799C120.632 108.319 122.076 109.504 123.767 110.204C125.457 110.904 127.316 111.087 129.11 110.73C130.905 110.374 132.553 109.492 133.847 108.199C135.14 106.906 136.021 105.259 136.378 103.465C136.735 101.671 136.552 99.8116 135.852 98.1221C135.151 96.4326 133.965 94.9885 132.444 93.9727C130.923 92.9568 129.134 92.4149 127.305 92.415Z" fill="white" stroke="#379D67" stroke-width="0.800834"/>
<path d="M124.686 95.3369C125.937 94.8188 127.313 94.6832 128.642 94.9473C129.97 95.2113 131.19 95.8631 132.147 96.8203C133.105 97.7776 133.757 98.9975 134.021 100.325C134.286 101.653 134.15 103.029 133.632 104.279C133.114 105.53 132.235 106.599 131.109 107.351C129.983 108.103 128.66 108.504 127.306 108.504L126.967 108.495C125.275 108.41 123.67 107.7 122.467 106.497C121.183 105.214 120.461 103.475 120.459 101.66C120.459 100.307 120.86 98.983 121.612 97.8574C122.365 96.7318 123.434 95.855 124.686 95.3369Z" fill="white" stroke="#379D67" stroke-width="0.800834"/>
<path d="M138.01 143.848C145.944 144.521 152.76 145.919 157.593 147.714C160.033 148.62 161.947 149.618 163.242 150.66C164.545 151.708 165.162 152.747 165.162 153.732C165.162 154.823 164.344 156.036 162.574 157.265C160.823 158.48 158.229 159.644 154.898 160.655C148.241 162.675 138.718 164.06 127.307 164.06C115.895 164.06 106.372 162.675 99.7148 160.655C96.3839 159.644 93.7906 158.48 92.0391 157.265C90.269 156.036 89.4512 154.823 89.4512 153.732C89.4512 152.747 90.0686 151.708 91.3711 150.66C92.6667 149.618 94.5804 148.62 97.0205 147.714C101.853 145.92 108.668 144.521 116.603 143.848C116.938 144.307 117.278 144.764 117.615 145.221V145.222C118.89 146.937 120.206 148.66 121.545 150.367V150.368C122.228 151.244 123.102 151.952 124.101 152.439C125.099 152.927 126.196 153.181 127.307 153.181C128.418 153.181 129.514 152.927 130.513 152.439C131.511 151.952 132.385 151.244 133.068 150.368L133.067 150.367C134.407 148.66 135.723 146.937 136.998 145.222V145.221C137.335 144.765 137.675 144.307 138.01 143.848Z" fill="white" stroke="#379D67" stroke-width="0.800834"/>
<ellipse cx="142.049" cy="5.99838" rx="3.33461" ry="3.33334" fill="url(#paint5_linear_911_13171)"/>
<ellipse cx="83.3599" cy="235.333" rx="4.66845" ry="4.66668" fill="url(#paint6_linear_911_13171)"/>
<ellipse cx="162.724" cy="228" rx="1.33384" ry="1.33334" fill="url(#paint7_linear_911_13171)"/>
<ellipse cx="227.417" cy="147.333" rx="3.33461" ry="3.33334" fill="url(#paint8_linear_911_13171)"/>
<ellipse cx="1.33384" cy="100" rx="1.33384" ry="1.33334" fill="url(#paint9_linear_911_13171)"/>
<defs>
<linearGradient id="paint0_linear_911_13171" x1="221.138" y1="214.444" x2="-2.63719" y2="149.538" gradientUnits="userSpaceOnUse">
<stop stop-color="#379D67"/>
<stop offset="1" stop-color="#28714A"/>
</linearGradient>
<linearGradient id="paint1_linear_911_13171" x1="248" y1="46.667" x2="224.194" y2="39.7621" gradientUnits="userSpaceOnUse">
<stop stop-color="#379D67"/>
<stop offset="1" stop-color="#28714A"/>
</linearGradient>
<linearGradient id="paint2_linear_911_13171" x1="40.0089" y1="26.6667" x2="8.26769" y2="17.4602" gradientUnits="userSpaceOnUse">
<stop stop-color="#379D67"/>
<stop offset="1" stop-color="#28714A"/>
</linearGradient>
<linearGradient id="paint3_linear_911_13171" x1="20.0025" y1="184" x2="4.13189" y2="179.397" gradientUnits="userSpaceOnUse">
<stop stop-color="#379D67"/>
<stop offset="1" stop-color="#28714A"/>
</linearGradient>
<linearGradient id="paint4_linear_911_13171" x1="224.083" y1="217.333" x2="216.148" y2="215.031" gradientUnits="userSpaceOnUse">
<stop stop-color="#379D67"/>
<stop offset="1" stop-color="#28714A"/>
</linearGradient>
<linearGradient id="paint5_linear_911_13171" x1="145.384" y1="9.33172" x2="137.449" y2="7.03008" gradientUnits="userSpaceOnUse">
<stop stop-color="#379D67"/>
<stop offset="1" stop-color="#28714A"/>
</linearGradient>
<linearGradient id="paint6_linear_911_13171" x1="88.0283" y1="239.999" x2="76.9189" y2="236.777" gradientUnits="userSpaceOnUse">
<stop stop-color="#379D67"/>
<stop offset="1" stop-color="#28714A"/>
</linearGradient>
<linearGradient id="paint7_linear_911_13171" x1="164.058" y1="229.334" x2="160.884" y2="228.413" gradientUnits="userSpaceOnUse">
<stop stop-color="#379D67"/>
<stop offset="1" stop-color="#28714A"/>
</linearGradient>
<linearGradient id="paint8_linear_911_13171" x1="230.751" y1="150.667" x2="222.816" y2="148.365" gradientUnits="userSpaceOnUse">
<stop stop-color="#379D67"/>
<stop offset="1" stop-color="#28714A"/>
</linearGradient>
<linearGradient id="paint9_linear_911_13171" x1="2.66769" y1="101.334" x2="-0.506434" y2="100.413" gradientUnits="userSpaceOnUse">
<stop stop-color="#379D67"/>
<stop offset="1" stop-color="#28714A"/>
</linearGradient>
</defs>
</svg>
