<svg width="25" height="24" viewBox="0 0 25 24" fill="none" xmlns="http://www.w3.org/2000/svg">
<path d="M22.5 8.99953V14.9995C22.5 17.4995 22 19.2495 20.88 20.3795L14.5 13.9995L22.23 6.26953C22.41 7.05953 22.5 7.95953 22.5 8.99953Z" stroke="#8B969D" stroke-width="1.5" stroke-linecap="round" stroke-linejoin="round"/>
<path d="M22.23 6.27L6.76999 21.73C3.75999 21.04 2.5 18.96 2.5 15V9C2.5 4 4.5 2 9.5 2H15.5C19.46 2 21.54 3.26 22.23 6.27Z" stroke="#8B969D" stroke-width="1.5" stroke-linecap="round" stroke-linejoin="round"/>
<path d="M20.8795 20.38C19.7495 21.5 17.9995 22 15.4995 22H9.49954C8.45954 22 7.55953 21.91 6.76953 21.73L14.4995 14L20.8795 20.38Z" stroke="#8B969D" stroke-width="1.5" stroke-linecap="round" stroke-linejoin="round"/>
<path d="M6.74124 7.9807C7.42124 5.0507 11.8212 5.0507 12.5012 7.9807C12.8912 9.7007 11.8112 11.1607 10.8612 12.0607C10.1712 12.7207 9.08125 12.7207 8.38125 12.0607C7.43125 11.1607 6.34124 9.7007 6.74124 7.9807Z" stroke="#8B969D" stroke-width="1.5"/>
<path d="M9.59607 8.69922H9.60505" stroke="#8B969D" stroke-width="1.5" stroke-linecap="round" stroke-linejoin="round"/>
</svg>
