<svg width="62" height="75" viewBox="0 0 62 75" fill="none" xmlns="http://www.w3.org/2000/svg">
<g filter="url(#filter0_d_1133_15910)">
<path d="M28.8597 60.4727V64.1124C28.8597 65.2498 27.9377 66.1719 26.8003 66.1719H23.4813C22.3439 66.1719 21.4219 65.2498 21.4219 64.1124V60.4727H28.8597Z" fill="#2C3642"/>
<path d="M54.1175 60.4727V64.1124C54.1175 65.2498 53.1955 66.1719 52.0581 66.1719H48.7391C47.6017 66.1719 46.6797 65.2498 46.6797 64.1124V60.4727H54.1175Z" fill="#2C3642"/>
<path d="M56.5488 59.074C55.5927 60.5672 53.906 61.416 52.1335 61.416H23.3966C21.6349 61.416 19.9482 60.5672 18.9814 59.074C16.7576 55.6793 16.8865 51.3393 21.8712 47.8586C20.7109 47.9982 18.2724 47.3537 18.2724 46.1612C18.2724 45.2159 19.8193 44.4531 21.7423 44.4531C22.6124 44.4531 23.4074 44.6035 24.0197 44.8721C33.1833 47.9016 42.3576 47.9016 51.5212 44.8721C52.1228 44.6035 52.9177 44.4531 53.7879 44.4531C55.7108 44.4531 57.2685 45.2159 57.2685 46.1612C57.2685 47.3644 54.787 47.9982 53.6697 47.8586C58.6543 51.3393 58.7725 55.6793 56.5488 59.074Z" fill="#379D67"/>
<path d="M51.5171 44.8717C42.3483 47.897 33.1811 47.8981 24.0156 44.8717C24.9288 42.6587 26.0353 40.6927 27.6037 39.2532C28.012 38.888 28.4846 38.6194 28.9895 38.426C33.5444 36.6428 42.375 36.6213 46.8225 38.5334C47.22 38.7053 47.5852 38.9417 47.9075 39.2317C49.4759 40.6713 50.5932 42.6479 51.5171 44.8717Z" fill="#00AEFF"/>
<path d="M28.1962 52.99C28.8657 54.2322 26.9584 56.5654 25.7124 57.2374C24.4664 57.9093 22.9156 57.4408 22.2461 56.1986C21.5742 54.9519 22.0352 53.3985 23.2813 52.7266C24.5273 52.0546 27.5243 51.7433 28.1962 52.99Z" fill="#FFC536"/>
<path d="M47.3339 52.988C46.6644 54.2302 48.5717 56.5635 49.8178 57.2354C51.0638 57.9073 52.6146 57.4388 53.284 56.1966C53.956 54.9499 53.4949 53.3965 52.2489 52.7246C51.0028 52.0527 48.0058 51.7413 47.3339 52.988Z" fill="#FFC536"/>
<path d="M42.2629 56.6661H33.2774C32.6841 56.6661 32.2031 56.1851 32.2031 55.5919C32.2031 54.9986 32.6841 54.5176 33.2774 54.5176H42.2629C42.8562 54.5176 43.3372 54.9986 43.3372 55.5919C43.3372 56.1851 42.8562 56.6661 42.2629 56.6661Z" fill="#EDEDED"/>
<path d="M11.4784 5.65168H6.7012V1.3506C6.7012 0.604736 6.09646 0 5.3506 0C4.60474 0 4 0.604736 4 1.3506V7.00228V18.1124V64.8967C4 65.6426 4.60474 66.2473 5.3506 66.2473C6.09646 66.2473 6.7012 65.6426 6.7012 64.8967V19.463H11.4784C12.2243 19.463 12.829 18.8583 12.829 18.1124V7.00228C12.829 6.25641 12.2243 5.65168 11.4784 5.65168ZM10.1278 16.7618H6.7012V8.35288H10.1278V16.7618Z" fill="#FFC536"/>
<path d="M44.5191 3.5887V21.8218C44.5191 23.7262 42.9659 25.2658 41.0751 25.2658H13.5769C11.6725 25.2658 10.1328 23.7262 10.1328 21.8218V3.5887C10.1328 1.69791 11.6725 0.158203 13.5769 0.158203H41.0751C42.9659 0.158203 44.5191 1.69791 44.5191 3.5887Z" fill="#17BE66"/>
<path d="M27.7866 5.55469H23.8628C23.1534 5.55469 22.5781 6.12992 22.5781 6.83939V12.7968V18.5811C22.5781 19.2906 23.1534 19.8658 23.8628 19.8658C24.5723 19.8658 25.1475 19.2906 25.1475 18.5811V14.0815H27.7866C30.1371 14.0815 32.0497 12.1689 32.0497 9.81843C32.0497 7.46732 30.1371 5.55469 27.7866 5.55469ZM27.7866 11.5121H25.1475V8.1241H27.7866C28.7206 8.1241 29.4803 8.88438 29.4803 9.81843C29.4803 10.7525 28.7206 11.5121 27.7866 11.5121Z" fill="white"/>
</g>
<defs>
<filter id="filter0_d_1133_15910" x="0" y="0" width="61.9336" height="74.248" filterUnits="userSpaceOnUse" color-interpolation-filters="sRGB">
<feFlood flood-opacity="0" result="BackgroundImageFix"/>
<feColorMatrix in="SourceAlpha" type="matrix" values="0 0 0 0 0 0 0 0 0 0 0 0 0 0 0 0 0 0 127 0" result="hardAlpha"/>
<feOffset dy="4"/>
<feGaussianBlur stdDeviation="2"/>
<feComposite in2="hardAlpha" operator="out"/>
<feColorMatrix type="matrix" values="0 0 0 0 0 0 0 0 0 0 0 0 0 0 0 0 0 0 0.08 0"/>
<feBlend mode="normal" in2="BackgroundImageFix" result="effect1_dropShadow_1133_15910"/>
<feBlend mode="normal" in="SourceGraphic" in2="effect1_dropShadow_1133_15910" result="shape"/>
</filter>
</defs>
</svg>
