<svg width="41" height="40" viewBox="0 0 41 40" fill="none" xmlns="http://www.w3.org/2000/svg">
<g clip-path="url(#clip0_3063_1548)">
<path d="M12 8.28125H32.4688C33.0489 8.28125 33.6053 8.05078 34.0155 7.64055C34.4258 7.23031 34.6562 6.67391 34.6562 6.09375C34.6562 5.51359 34.4258 4.95719 34.0155 4.54695C33.6053 4.13672 33.0489 3.90625 32.4688 3.90625H4.5C3.54688 3.90625 2.63279 4.28488 1.95884 4.95883C1.28488 5.63279 0.90625 6.54688 0.90625 7.5V17.8125H12V8.28125Z" fill="#212427"/>
<path d="M35.5987 36.7188C36.4575 36.7185 37.294 36.4462 37.9883 35.9409C38.6826 35.4356 39.1989 34.7233 39.4631 33.9062H31.7344C31.9986 34.7233 32.5149 35.4356 33.2092 35.9409C33.9035 36.4462 34.74 36.7185 35.5987 36.7188Z" fill="#212427"/>
<path d="M5.91125 36.7188C6.76996 36.7185 7.60651 36.4462 8.3008 35.9409C8.99509 35.4356 9.51141 34.7233 9.77562 33.9062H2.04688C2.31109 34.7233 2.82741 35.4356 3.5217 35.9409C4.21599 36.4462 5.05254 36.7185 5.91125 36.7188Z" fill="#212427"/>
<path d="M5.90625 26.7188C4.58062 26.7202 3.30972 27.2475 2.37236 28.1849C1.435 29.1222 0.907739 30.3931 0.90625 31.7188H10.9062C10.9048 30.3931 10.3775 29.1222 9.44014 28.1849C8.50278 27.2475 7.23188 26.7202 5.90625 26.7188Z" fill="#212427"/>
<path d="M28.25 10.4688V18.2812H34.4669C34.3302 15.5213 33.5144 12.8378 32.0919 10.4688H28.25Z" fill="#212427"/>
<path d="M40.3875 30.2959C40.1318 29.4435 39.654 28.6744 39.003 28.0676C38.352 27.4608 37.5514 27.0381 36.6831 26.8428C36.6554 28.4329 36.1028 29.9693 35.1113 31.2128C34.9681 31.3915 34.8131 31.5571 34.6562 31.7196H39.3406C39.5124 31.7188 39.6815 31.6778 39.8346 31.5999C39.9877 31.522 40.1204 31.4094 40.2221 31.271C40.3238 31.1327 40.3918 30.9724 40.4205 30.8031C40.4492 30.6338 40.4379 30.4601 40.3875 30.2959Z" fill="#212427"/>
<path d="M33.4031 29.8438C34.1147 28.9578 34.5018 27.8551 34.5 26.7188V20.4688H28.25V29.5312H24.9688V22.5C24.9678 21.7129 24.6547 20.9584 24.0981 20.4019C23.5416 19.8453 22.7871 19.5322 22 19.5312H20.5938V10.4688H18.4062V29.5312H15.5938V23.5938C15.5938 22.6406 15.2151 21.7265 14.5412 21.0526C13.8672 20.3786 12.9531 20 12 20H0.90625V26.5662C1.91831 25.581 3.19852 24.9161 4.58662 24.6549C5.97472 24.3936 7.40904 24.5477 8.71003 25.0977C10.011 25.6477 11.1208 26.5692 11.9006 27.747C12.6804 28.9247 13.0954 30.3063 13.0938 31.7188H29.5C30.2496 31.7194 30.9898 31.5512 31.6655 31.2266C32.3412 30.902 32.9351 30.4294 33.4031 29.8438Z" fill="#212427"/>
</g>
<defs>
<clipPath id="clip0_3063_1548">
<rect width="40" height="40" fill="white" transform="translate(0.75)"/>
</clipPath>
</defs>
</svg>
