<svg width="41" height="40" viewBox="0 0 41 40" fill="none" xmlns="http://www.w3.org/2000/svg">
<g clip-path="url(#clip0_3063_1313)">
<path d="M16.7939 19.2806C17.1156 17.0773 17.0739 15.9256 13.8472 16.104C10.1422 16.3106 6.38724 16.5456 0.765573 17.8156C0.592951 18.5312 0.505125 19.2645 0.503906 20.0006C0.503906 22.534 1.53391 24.984 3.48224 27.0906C5.24891 28.9973 7.74224 30.5823 10.6922 31.6773C11.7877 32.0795 12.9091 32.4069 14.0489 32.6573C14.2656 31.779 15.6472 26.1456 16.7422 19.619L16.7922 19.2823M40.2422 17.8156C34.6222 16.5456 30.8689 16.3123 27.1656 16.1056C23.9372 15.9273 23.8956 17.079 24.2189 19.2823L24.2956 19.779C25.3789 26.1923 26.7256 31.7123 26.9589 32.6456C34.8289 30.8473 40.5039 25.8606 40.5039 20.0006C40.5039 19.2623 40.4139 18.534 40.2422 17.8156ZM39.4239 15.609C38.9184 14.6265 38.279 13.7189 37.5239 12.9123C35.7572 11.0056 33.2656 9.42062 30.3156 8.32562C27.3422 7.22229 23.9489 6.64062 20.5039 6.64062C17.0572 6.64062 13.6656 7.22396 10.6922 8.32396C7.74224 9.42062 5.24891 11.0073 3.48224 12.9123C2.72775 13.7196 2.08888 14.6277 1.58391 15.6106C5.42391 14.6823 11.9922 13.4556 18.0906 13.3273C18.6789 13.314 19.0839 13.5023 19.3506 13.839C19.6772 14.2523 19.6506 15.719 19.6422 16.3756L19.4689 33.3423C20.1598 33.3655 20.8513 33.3655 21.5422 33.3423L21.3689 16.3756C21.3606 15.719 21.3356 14.2523 21.6606 13.839C21.9272 13.5023 22.3322 13.314 22.9206 13.3256C29.0172 13.4556 35.5822 14.6806 39.4239 15.609Z" fill="#212427"/>
</g>
<defs>
<clipPath id="clip0_3063_1313">
<rect width="40" height="40" fill="white" transform="translate(0.5)"/>
</clipPath>
</defs>
</svg>
