<svg width="41" height="40" viewBox="0 0 41 40" fill="none" xmlns="http://www.w3.org/2000/svg">
<g clip-path="url(#clip0_3002_3317)">
<path d="M10.4987 5C13.3493 4.99952 16.1015 6.04274 18.2356 7.93269C20.3697 9.82265 21.7379 12.4285 22.082 15.2583C23.1687 14.121 24.475 13.2162 25.9218 12.5988C27.3686 11.9814 28.9257 11.6643 30.4987 11.6667H35.4987C35.9407 11.6667 36.3647 11.8423 36.6772 12.1548C36.9898 12.4674 37.1654 12.8913 37.1654 13.3333V15C37.1654 18.0942 35.9362 21.0617 33.7483 23.2496C31.5604 25.4375 28.5929 26.6667 25.4987 26.6667H22.1654V33.3333C22.1654 33.7754 21.9898 34.1993 21.6772 34.5118C21.3646 34.8244 20.9407 35 20.4987 35C20.0567 35 19.6327 34.8244 19.3202 34.5118C19.0076 34.1993 18.832 33.7754 18.832 33.3333V21.6667H15.4987C12.4045 21.6667 9.43704 20.4375 7.24912 18.2496C5.06119 16.0617 3.83203 13.0942 3.83203 10V6.66667C3.83203 6.22464 4.00763 5.80072 4.32019 5.48816C4.63275 5.17559 5.05667 5 5.4987 5H10.4987Z" fill="#379D67"/>
</g>
<defs>
<clipPath id="clip0_3002_3317">
<rect width="40" height="40" fill="white" transform="translate(0.5)"/>
</clipPath>
</defs>
</svg>
