<svg width="41" height="40" viewBox="0 0 41 40" fill="none" xmlns="http://www.w3.org/2000/svg">
<g clip-path="url(#clip0_3063_1629)">
<path fill-rule="evenodd" clip-rule="evenodd" d="M27.6914 28.283V13.0047C27.6914 12.4892 28.1132 12.0674 28.6287 12.0674H35.8461C36.0101 12.0674 36.1507 12.1611 36.2444 12.3017L40.1577 18.5583C40.2046 18.6286 40.228 18.7223 40.228 18.8161V24.2994C40.228 25.6585 39.6891 26.9239 38.7283 27.8612C38.2597 25.2601 35.9867 23.2918 33.245 23.2918C30.3628 23.2918 27.996 25.471 27.6914 28.283ZM32.0265 20.9953H29.7066C29.4489 20.9953 29.238 20.7844 29.238 20.5267C29.238 20.2689 29.4489 20.058 29.7066 20.058H32.0265C32.2843 20.058 32.4952 20.2689 32.4952 20.5267C32.4952 20.7844 32.2843 20.9953 32.0265 20.9953ZM28.6287 13.0047V18.3474H38.9158L35.5883 13.0047H28.6287Z" fill="#212427"/>
<path fill-rule="evenodd" clip-rule="evenodd" d="M3.50781 24.4867V10.7316C3.50781 10.4738 3.71871 10.2629 3.97647 10.2629H21.434L21.6683 6.91202C21.6918 6.65426 21.9027 6.4668 22.137 6.4668H26.8939C27.8312 6.4668 28.581 7.21665 28.581 8.15397C28.581 9.06785 27.8312 9.8177 26.8939 9.8177H25.2301V24.4867H13.4199C12.4826 23.7369 11.2875 23.2916 9.9753 23.2916C8.68649 23.2916 7.46798 23.7369 6.53066 24.4867H3.50781ZM7.04618 22.0263C6.78842 22.0263 6.57753 21.8388 6.57753 21.581L6.22603 15.0667C6.22603 14.9495 6.2729 14.8324 6.36663 14.7386C6.43693 14.6449 6.57753 14.5746 6.69469 14.5746H8.99112C9.24888 14.5746 9.45978 14.7855 9.45978 15.0432C9.45978 15.301 9.24888 15.5119 8.99112 15.5119H7.18678L7.49141 21.5342C7.51484 21.7919 7.32738 22.0263 7.06962 22.0263C7.04618 22.0263 7.04618 22.0263 7.04618 22.0263ZM13.0919 22.0263C12.8341 22.0263 12.6232 21.8388 12.6232 21.581L12.2717 15.0667C12.2717 14.9495 12.3186 14.8324 12.4123 14.7386C12.5061 14.6449 12.6232 14.5746 12.7404 14.5746H15.0602C15.318 14.5746 15.5289 14.7855 15.5289 15.0432C15.5289 15.301 15.318 15.5119 15.0602 15.5119H13.2325L13.5605 21.5342C13.5605 21.7919 13.3731 22.0263 13.1153 22.0263H13.0919ZM19.1376 22.0263C18.9032 22.0263 18.6923 21.8388 18.6689 21.581L18.3409 15.0667C18.3174 14.9495 18.3643 14.8324 18.458 14.7386C18.5517 14.6449 18.6689 14.5746 18.8095 14.5746H21.1059C21.3637 14.5746 21.5746 14.7855 21.5746 15.0432C21.5746 15.301 21.3637 15.5119 21.1059 15.5119H19.3016L19.6062 21.5342C19.6297 21.7919 19.4188 22.0263 19.161 22.0263C19.161 22.0263 19.161 22.0263 19.1376 22.0263Z" fill="#212427"/>
<path fill-rule="evenodd" clip-rule="evenodd" d="M4.42106 29.2903H0.718658C0.460896 29.2903 0.25 29.0794 0.25 28.8216V25.8925C0.25 25.6347 0.460896 25.4238 0.718658 25.4238H5.59271C4.84285 26.3611 4.39763 27.5797 4.39763 28.8685C4.39763 29.0091 4.39763 29.1497 4.42106 29.2903Z" fill="#212427"/>
<path fill-rule="evenodd" clip-rule="evenodd" d="M26.7554 29.2903H15.5545C15.5545 29.1497 15.5545 29.0091 15.5545 28.8685C15.5545 27.5797 15.1092 26.3611 14.3594 25.4238H26.7554V29.2903ZM28.63 28.3295V28.8216C28.63 28.9153 28.6066 29.0091 28.5597 29.0794L28.63 28.3764V28.3295Z" fill="#212427"/>
<path fill-rule="evenodd" clip-rule="evenodd" d="M9.97566 33.5089C7.42147 33.5089 5.33594 31.4234 5.33594 28.8692C5.33594 26.315 7.42147 24.2295 9.97566 24.2295C12.5298 24.2295 14.6154 26.315 14.6154 28.8692C14.6154 31.4234 12.5298 33.5089 9.97566 33.5089ZM9.97566 31.5406C8.52282 31.5406 7.32774 30.3455 7.32774 28.8692C7.32774 27.3929 8.52282 26.1979 9.97566 26.1979C11.4519 26.1979 12.647 27.3929 12.647 28.8692C12.647 30.3455 11.4519 31.5406 9.97566 31.5406Z" fill="#212427"/>
<path fill-rule="evenodd" clip-rule="evenodd" d="M33.2413 33.5089C30.6871 33.5089 28.6016 31.4234 28.6016 28.8692C28.6016 26.315 30.6871 24.2295 33.2413 24.2295C35.7955 24.2295 37.881 26.315 37.881 28.8692C37.881 31.4234 35.7955 33.5089 33.2413 33.5089ZM33.2413 31.5406C31.765 31.5406 30.5699 30.3455 30.5699 28.8692C30.5699 27.3929 31.765 26.1979 33.2413 26.1979C34.7176 26.1979 35.8892 27.3929 35.8892 28.8692C35.8892 30.3455 34.7176 31.5406 33.2413 31.5406Z" fill="#212427"/>
</g>
<defs>
<clipPath id="clip0_3063_1629">
<rect width="40" height="40" fill="white" transform="translate(0.25)"/>
</clipPath>
</defs>
</svg>
