<svg width="248" height="240" viewBox="0 0 248 240" fill="none" xmlns="http://www.w3.org/2000/svg">
<ellipse cx="127.102" cy="120.622" rx="94.0359" ry="94.0003" fill="url(#paint0_linear_881_13242)"/>
<ellipse cx="237.996" cy="36.667" rx="10.0038" ry="10" fill="url(#paint1_linear_881_13242)"/>
<ellipse cx="26.6705" cy="13.3334" rx="13.3384" ry="13.3334" fill="url(#paint2_linear_881_13242)"/>
<ellipse cx="13.3333" cy="177.334" rx="6.66921" ry="6.66668" fill="url(#paint3_linear_881_13242)"/>
<ellipse cx="220.749" cy="213.999" rx="3.33461" ry="3.33334" fill="url(#paint4_linear_881_13242)"/>
<path d="M127.306 116.517C124.383 115.807 121.482 115.449 118.621 115.449C110.86 115.43 103.287 117.06 96.1211 120.295L100.101 124.662C102.692 127.539 106.284 129.18 109.966 129.18H149.232C145.653 125.834 141.909 122.737 138.199 120.757C134.553 118.811 130.911 117.396 127.306 116.517Z" fill="white"/>
<path d="M168.895 138.341L159.784 135.721H109.968C104.683 135.721 99.5291 133.364 95.8273 129.253L90.3896 123.287C89.1888 124.002 88.0143 124.764 86.866 125.568V100.727C86.866 97.983 88.9165 95.7505 91.4369 95.7505H97.477V97.852C97.477 102.702 101.103 106.65 105.557 106.65H116.497C118.155 106.65 119.5 105.185 119.5 103.38V102.29H126.507C128.166 102.29 129.51 100.826 129.51 99.0204C129.51 97.2145 128.166 95.7505 126.507 95.7505H119.5V89.2109H126.507C128.166 89.2109 129.51 87.7469 129.51 85.941C129.51 84.1352 128.166 82.6712 126.507 82.6712H119.5V81.5814C119.5 79.7764 118.155 78.3115 116.497 78.3115H105.557C101.103 78.3115 97.477 82.2592 97.477 87.1094V89.2109H91.4369C85.6046 89.2109 80.8597 94.3772 80.8597 100.727V130.4C79.4971 131.652 78.1829 132.975 76.9196 134.369C76.365 134.98 76.0547 135.806 76.0547 136.665V158.513C76.0547 160.321 77.4001 161.783 79.0578 161.783H83.4624C83.4624 152.512 90.3916 144.968 98.9085 144.968C107.423 144.968 114.353 152.512 114.353 161.783H140.196C140.196 152.512 147.125 144.968 155.642 144.968C164.156 144.968 171.086 152.512 171.086 161.783H175.558C177.216 161.783 178.561 160.321 178.561 158.513V152.006C178.561 145.597 174.587 139.978 168.895 138.341ZM130.169 148.8H124.447C122.789 148.8 121.444 147.335 121.444 145.53C121.444 143.725 122.789 142.26 124.447 142.26H130.169C131.827 142.26 133.172 143.725 133.172 145.53C133.172 147.335 131.827 148.8 130.169 148.8Z" fill="white"/>
<path d="M155.638 151.507C150.434 151.507 146.199 156.116 146.199 161.782C146.199 167.449 150.434 172.06 155.638 172.06C160.843 172.06 165.076 167.449 165.076 161.782C165.076 156.116 160.843 151.507 155.638 151.507Z" fill="white"/>
<path d="M98.908 151.507C93.7034 151.507 89.4688 156.116 89.4688 161.782C89.4688 167.449 93.7034 172.06 98.908 172.06C104.113 172.06 108.345 167.449 108.345 161.782C108.345 156.116 104.113 151.507 98.908 151.507Z" fill="white"/>
<path d="M157.538 115.369C169.13 115.369 178.559 105.102 178.559 92.4804C178.559 79.8589 169.13 69.5918 157.538 69.5918C145.945 69.5918 136.516 79.8589 136.516 92.4804C136.516 105.102 145.945 115.369 157.538 115.369ZM149.583 90.5511C150.756 89.2738 152.658 89.2738 153.832 90.5511L155.86 92.7616L160.843 87.3339C161.568 86.547 162.569 86.2462 163.506 86.4293C164.086 86.5448 164.643 86.8457 165.091 87.3339C166.265 88.6112 166.265 90.6822 165.091 91.9595C165.091 91.9595 157.696 99.9837 157.538 100.097C157.033 100.47 156.446 100.655 155.86 100.655C155.091 100.655 154.322 100.337 153.736 99.6983L149.583 95.1772C148.41 93.8995 148.41 91.8285 149.583 90.5511Z" fill="white"/>
<ellipse cx="142.049" cy="5.99838" rx="3.33461" ry="3.33334" fill="url(#paint5_linear_881_13242)"/>
<ellipse cx="83.3599" cy="235.333" rx="4.66845" ry="4.66668" fill="url(#paint6_linear_881_13242)"/>
<ellipse cx="162.724" cy="228" rx="1.33384" ry="1.33334" fill="url(#paint7_linear_881_13242)"/>
<ellipse cx="227.417" cy="147.333" rx="3.33461" ry="3.33334" fill="url(#paint8_linear_881_13242)"/>
<ellipse cx="1.33384" cy="100" rx="1.33384" ry="1.33334" fill="url(#paint9_linear_881_13242)"/>
<defs>
<linearGradient id="paint0_linear_881_13242" x1="221.138" y1="214.623" x2="-2.63719" y2="149.716" gradientUnits="userSpaceOnUse">
<stop stop-color="#379D67"/>
<stop offset="1" stop-color="#28714A"/>
</linearGradient>
<linearGradient id="paint1_linear_881_13242" x1="248" y1="46.667" x2="224.194" y2="39.7621" gradientUnits="userSpaceOnUse">
<stop stop-color="#379D67"/>
<stop offset="1" stop-color="#28714A"/>
</linearGradient>
<linearGradient id="paint2_linear_881_13242" x1="40.0089" y1="26.6667" x2="8.26769" y2="17.4602" gradientUnits="userSpaceOnUse">
<stop stop-color="#379D67"/>
<stop offset="1" stop-color="#28714A"/>
</linearGradient>
<linearGradient id="paint3_linear_881_13242" x1="20.0025" y1="184" x2="4.13189" y2="179.397" gradientUnits="userSpaceOnUse">
<stop stop-color="#379D67"/>
<stop offset="1" stop-color="#28714A"/>
</linearGradient>
<linearGradient id="paint4_linear_881_13242" x1="224.083" y1="217.333" x2="216.148" y2="215.031" gradientUnits="userSpaceOnUse">
<stop stop-color="#379D67"/>
<stop offset="1" stop-color="#28714A"/>
</linearGradient>
<linearGradient id="paint5_linear_881_13242" x1="145.384" y1="9.33172" x2="137.449" y2="7.03008" gradientUnits="userSpaceOnUse">
<stop stop-color="#379D67"/>
<stop offset="1" stop-color="#28714A"/>
</linearGradient>
<linearGradient id="paint6_linear_881_13242" x1="88.0283" y1="239.999" x2="76.9189" y2="236.777" gradientUnits="userSpaceOnUse">
<stop stop-color="#379D67"/>
<stop offset="1" stop-color="#28714A"/>
</linearGradient>
<linearGradient id="paint7_linear_881_13242" x1="164.058" y1="229.334" x2="160.884" y2="228.413" gradientUnits="userSpaceOnUse">
<stop stop-color="#379D67"/>
<stop offset="1" stop-color="#28714A"/>
</linearGradient>
<linearGradient id="paint8_linear_881_13242" x1="230.751" y1="150.667" x2="222.816" y2="148.365" gradientUnits="userSpaceOnUse">
<stop stop-color="#379D67"/>
<stop offset="1" stop-color="#28714A"/>
</linearGradient>
<linearGradient id="paint9_linear_881_13242" x1="2.66769" y1="101.334" x2="-0.506434" y2="100.413" gradientUnits="userSpaceOnUse">
<stop stop-color="#379D67"/>
<stop offset="1" stop-color="#28714A"/>
</linearGradient>
</defs>
</svg>
