<svg width="41" height="40" viewBox="0 0 41 40" fill="none" xmlns="http://www.w3.org/2000/svg">
<g clip-path="url(#clip0_3063_1776)">
<path d="M17.7294 21.7053V22.483H24.8667V20.1366H24.0562C24.017 20.8752 23.6118 21.6399 22.566 21.7053H21.3046V18.1432H22.5203V17.3589H17.749V18.1432H18.9255V21.7053H17.7294ZM13.7817 22.5941C11.8275 22.5941 10.1804 21.5941 10.1804 19.9928C10.1804 18.2085 11.8209 17.3262 13.7817 17.3262C15.9713 17.3262 17.3699 18.3262 17.3699 19.9928C17.3699 21.5811 15.7948 22.5941 13.7817 22.5941ZM13.7817 21.7249C14.4614 21.7249 14.9647 20.934 14.9647 19.9863C14.9647 18.934 14.5072 18.1497 13.7817 18.1497C13.0562 18.1497 12.6118 18.934 12.6118 19.9863C12.6118 21.0517 13.0562 21.7249 13.7817 21.7249ZM0.664062 17.3654V18.1497H1.86014L4.21962 22.4765H7.03661L9.44838 18.1497H10.6379V17.3654H7.03008V18.1497H8.06276L6.32419 21.287L4.60524 18.1497H5.86668V17.3654H0.664062ZM23.6837 17.3654H28.8928V18.1497H27.6248L29.3438 21.287L31.0954 18.1497H30.0497V17.3654H33.651V18.1497H32.468L30.0497 22.4765H27.2327L24.8732 18.1497H23.6837V17.3654ZM36.7817 22.5941C38.7948 22.5941 40.3699 21.5811 40.3699 19.9928C40.3699 18.3262 38.9647 17.3262 36.7817 17.3262C34.8275 17.3262 33.1804 18.2085 33.1804 19.9928C33.1804 21.5941 34.8275 22.5941 36.7817 22.5941ZM36.7817 21.7249C36.0562 21.7249 35.6183 21.0517 35.6183 19.9863C35.6183 18.934 36.0628 18.1497 36.7817 18.1497C37.5007 18.1497 37.9647 18.934 37.9647 19.9863C37.9647 20.934 37.468 21.7249 36.7817 21.7249Z" fill="#212427"/>
</g>
<defs>
<clipPath id="clip0_3063_1776">
<rect width="40" height="40" fill="white" transform="translate(0.5)"/>
</clipPath>
</defs>
</svg>
