<svg width="25" height="24" viewBox="0 0 25 24" fill="none" xmlns="http://www.w3.org/2000/svg">
<path d="M14.7617 15.998H9.76172" stroke="#8B969D" stroke-width="1.5" stroke-miterlimit="10" stroke-linecap="round" stroke-linejoin="round"/>
<path d="M13.1609 2.51814L13.1309 2.58814L10.2309 9.31814H7.38094C6.70094 9.31814 6.05094 9.45814 5.46094 9.70814L7.21094 5.52814L7.25094 5.42814L7.32094 5.26814C7.34094 5.20814 7.36094 5.14814 7.39094 5.09814C8.70094 2.06814 10.1809 1.37814 13.1609 2.51814Z" stroke="#8B969D" stroke-width="1.5" stroke-linecap="round" stroke-linejoin="round"/>
<path d="M18.5505 9.51758C18.1005 9.37758 17.6205 9.31758 17.1405 9.31758H10.2305L13.1305 2.58758L13.1605 2.51758C13.3105 2.56758 13.4505 2.63758 13.6005 2.69758L15.8105 3.62758C17.0405 4.13758 17.9005 4.66758 18.4205 5.30758C18.5205 5.42758 18.6005 5.53758 18.6705 5.66758C18.7605 5.80758 18.8305 5.94758 18.8705 6.09758C18.9105 6.18758 18.9405 6.27758 18.9605 6.35758C19.2305 7.19758 19.0705 8.22758 18.5505 9.51758Z" stroke="#8B969D" stroke-width="1.5" stroke-linecap="round" stroke-linejoin="round"/>
<path d="M22.0217 14.1984V16.1484C22.0217 16.3484 22.0117 16.5484 22.0017 16.7484C21.8117 20.2384 19.8617 21.9984 16.1617 21.9984H8.36172C8.12172 21.9984 7.88172 21.9784 7.65172 21.9484C4.47172 21.7384 2.77172 20.0384 2.56172 16.8584C2.53172 16.6284 2.51172 16.3884 2.51172 16.1484V14.1984C2.51172 12.1884 3.73172 10.4584 5.47172 9.70836C6.07172 9.45836 6.71172 9.31836 7.39172 9.31836H17.1517C17.6417 9.31836 18.1217 9.38836 18.5617 9.51836C20.5517 10.1284 22.0217 11.9884 22.0217 14.1984Z" stroke="#8B969D" stroke-width="1.5" stroke-linecap="round" stroke-linejoin="round"/>
<path d="M7.21 5.52734L5.46 9.70734C3.72 10.4573 2.5 12.1873 2.5 14.1973V11.2673C2.5 8.42734 4.52 6.05734 7.21 5.52734Z" stroke="#8B969D" stroke-width="1.5" stroke-linecap="round" stroke-linejoin="round"/>
<path d="M22.0186 11.2677V14.1977C22.0186 11.9977 20.5586 10.1277 18.5586 9.52766C19.0786 8.22766 19.2286 7.20766 18.9786 6.35766C18.9586 6.26766 18.9286 6.17766 18.8886 6.09766C20.7486 7.05766 22.0186 9.02766 22.0186 11.2677Z" stroke="#8B969D" stroke-width="1.5" stroke-linecap="round" stroke-linejoin="round"/>
</svg>
