<svg width="40" height="40" viewBox="0 0 40 40" fill="none" xmlns="http://www.w3.org/2000/svg">
<g clip-path="url(#clip0_3002_3292)">
<path d="M24.4227 40C23.5361 40.0007 22.6718 39.7226 21.9521 39.2049C21.2324 38.6873 20.6938 37.9563 20.4125 37.1156C20.3668 36.9794 20.3485 36.8356 20.3584 36.6923C20.3683 36.549 20.4064 36.409 20.4704 36.2805C20.5345 36.1519 20.6232 36.0371 20.7315 35.9428C20.8399 35.8485 20.9658 35.7765 21.102 35.7309C21.2381 35.6852 21.382 35.6668 21.5253 35.6768C21.6686 35.6867 21.8085 35.7248 21.9371 35.7888C22.0657 35.8528 22.1804 35.9415 22.2747 36.0499C22.369 36.1582 22.4411 36.2841 22.4867 36.4203C22.6061 36.7765 22.8214 37.0929 23.109 37.3346C23.3966 37.5764 23.7453 37.734 24.1167 37.7903C24.4882 37.8465 24.8679 37.7992 25.2142 37.6535C25.5605 37.5077 25.8598 37.2693 26.0793 36.9644C26.2987 36.6595 26.4298 36.2999 26.458 35.9253C26.4863 35.5506 26.4106 35.1755 26.2393 34.8411C26.068 34.5068 25.8078 34.2262 25.4872 34.0302C25.1667 33.8342 24.7983 33.7305 24.4227 33.7305H17.1484C16.8584 33.7305 16.5802 33.6152 16.375 33.4101C16.1699 33.205 16.0547 32.9268 16.0547 32.6367C16.0547 32.3466 16.1699 32.0684 16.375 31.8633C16.5802 31.6582 16.8584 31.543 17.1484 31.543H24.4227C25.5342 31.5581 26.595 32.0102 27.3757 32.8016C28.1564 33.5929 28.5941 34.6599 28.5941 35.7715C28.5941 36.8831 28.1564 37.95 27.3757 38.7414C26.595 39.5327 25.5342 39.9849 24.4227 40Z" fill="#89AFCE"/>
<path d="M14.1367 33.7305H12.4336C12.1435 33.7305 11.8653 33.6152 11.6602 33.4101C11.4551 33.205 11.3398 32.9268 11.3398 32.6367C11.3398 32.3466 11.4551 32.0684 11.6602 31.8633C11.8653 31.6582 12.1435 31.543 12.4336 31.543H14.1367C14.4268 31.543 14.705 31.6582 14.9101 31.8633C15.1152 32.0684 15.2305 32.3466 15.2305 32.6367C15.2305 32.9268 15.1152 33.205 14.9101 33.4101C14.705 33.6152 14.4268 33.7305 14.1367 33.7305Z" fill="#89AFCE"/>
<path d="M12.6406 37.5684H7.37109C7.08101 37.5684 6.80281 37.4531 6.5977 37.248C6.39258 37.0429 6.27734 36.7647 6.27734 36.4746C6.27734 36.1845 6.39258 35.9063 6.5977 35.7012C6.80281 35.4961 7.08101 35.3809 7.37109 35.3809H12.6406C12.9307 35.3809 13.2089 35.4961 13.414 35.7012C13.6191 35.9063 13.7344 36.1845 13.7344 36.4746C13.7344 36.7647 13.6191 37.0429 13.414 37.248C13.2089 37.4531 12.9307 37.5684 12.6406 37.5684Z" fill="#89AFCE"/>
<path d="M27.9344 3.01641V0.967188C27.9344 0.710673 27.8325 0.464666 27.6511 0.283283C27.4697 0.1019 27.2237 0 26.9672 0C26.7107 0 26.4647 0.1019 26.2833 0.283283C26.1019 0.464666 26 0.710673 26 0.967188V3.01641C26 3.27292 26.1019 3.51893 26.2833 3.70031C26.4647 3.88169 26.7107 3.98359 26.9672 3.98359C27.2237 3.98359 27.4697 3.88169 27.6511 3.70031C27.8325 3.51893 27.9344 3.27292 27.9344 3.01641Z" fill="#F9973E"/>
<path d="M34.7333 6.63293L36.1825 5.18449C36.3639 5.00308 36.4659 4.75705 36.4659 4.5005C36.4659 4.24396 36.3639 3.99792 36.1825 3.81652C36.0011 3.63511 35.7551 3.5332 35.4986 3.5332C35.242 3.5332 34.996 3.63511 34.8146 3.81652L33.3653 5.26496C33.2755 5.35478 33.2043 5.46141 33.1557 5.57877C33.1071 5.69613 33.082 5.82191 33.082 5.94894C33.082 6.07597 33.1071 6.20175 33.1557 6.31911C33.2043 6.43647 33.2755 6.5431 33.3653 6.63293C33.4552 6.72275 33.5618 6.794 33.6792 6.84261C33.7965 6.89122 33.9223 6.91624 34.0493 6.91624C34.1764 6.91624 34.3021 6.89122 34.4195 6.84261C34.5369 6.794 34.6435 6.72275 34.7333 6.63293Z" fill="#F9973E"/>
<path d="M36.9795 14.0016H39.0288C39.2806 13.9944 39.5198 13.8893 39.6954 13.7087C39.871 13.528 39.9692 13.2859 39.9692 13.034C39.9692 12.782 39.871 12.54 39.6954 12.3593C39.5198 12.1786 39.2806 12.0736 39.0288 12.0664H36.9795C36.7277 12.0736 36.4885 12.1786 36.3129 12.3593C36.1373 12.54 36.0391 12.782 36.0391 13.034C36.0391 13.2859 36.1373 13.528 36.3129 13.7087C36.4885 13.8893 36.7277 13.9944 36.9795 14.0016Z" fill="#F9973E"/>
<path d="M33.3656 20.7984L34.8148 22.2469C34.9962 22.4283 35.2423 22.5302 35.4988 22.5302C35.7554 22.5302 36.0014 22.4283 36.1828 22.2469C36.3642 22.0655 36.4661 21.8194 36.4661 21.5629C36.4661 21.3063 36.3642 21.0603 36.1828 20.8789L34.7336 19.4297C34.6437 19.3399 34.537 19.2686 34.4196 19.22C34.3022 19.1714 34.1764 19.1464 34.0493 19.1465C33.9223 19.1465 33.7965 19.1716 33.6791 19.2202C33.5617 19.2689 33.4551 19.3402 33.3652 19.4301C33.2754 19.5199 33.2042 19.6266 33.1556 19.744C33.107 19.8614 33.082 19.9873 33.082 20.1143C33.0821 20.2414 33.1071 20.3672 33.1558 20.4846C33.2044 20.602 33.2757 20.7086 33.3656 20.7984Z" fill="#F9973E"/>
<path d="M17.7521 5.18449L19.2005 6.63293C19.3819 6.81433 19.6279 6.91624 19.8845 6.91624C20.141 6.91624 20.3871 6.81433 20.5685 6.63292C20.7499 6.45152 20.8518 6.20548 20.8518 5.94894C20.8518 5.6924 20.7499 5.44636 20.5685 5.26496L19.12 3.81652C19.0302 3.7267 18.9236 3.65545 18.8062 3.60683C18.6889 3.55822 18.5631 3.5332 18.436 3.5332C18.309 3.5332 18.1832 3.55822 18.0659 3.60683C17.9485 3.65545 17.8419 3.7267 17.7521 3.81652C17.6622 3.90634 17.591 4.01298 17.5424 4.13033C17.4938 4.24769 17.4687 4.37348 17.4688 4.5005C17.4687 4.62753 17.4938 4.75331 17.5424 4.87067C17.591 4.98803 17.6622 5.09467 17.7521 5.18449Z" fill="#F9973E"/>
<path d="M26.9641 20.9906C31.3582 20.9906 34.9203 17.4285 34.9203 13.0344C34.9203 8.64026 31.3582 5.07812 26.9641 5.07812C22.5699 5.07812 19.0078 8.64026 19.0078 13.0344C19.0078 17.4285 22.5699 20.9906 26.9641 20.9906Z" fill="#F9973E"/>
<path d="M26.9683 5.07813C25.2107 5.07823 23.5026 5.66024 22.1107 6.73331C20.7187 7.80639 19.7212 9.31014 19.2738 11.0098C18.8264 12.7095 18.9544 14.5095 19.6377 16.1288C20.3211 17.7481 21.5213 19.0956 23.0511 19.9609C25.4077 18.5058 27.3778 16.5028 28.7936 14.1223C30.2094 11.7418 31.0289 9.05447 31.1824 6.28906C29.9195 5.49706 28.4589 5.07734 26.9683 5.07813Z" fill="#FCA84C"/>
<path d="M25.9281 18.6484C25.439 18.6606 24.9538 18.7394 24.4859 18.8828C23.8609 14.2812 19.9922 10.6875 15.3094 10.6797C11.4906 10.6797 8.21094 13.0844 6.79375 16.4445C6.68281 16.4367 6.57031 16.432 6.45781 16.4297C2.89063 16.3906 0 19.1984 0 22.743C0 26.2875 2.82344 29.4719 6.39062 29.6891C12.8798 30.0483 19.3845 30.0267 25.8711 29.6242C28.8328 29.4289 31.2906 26.7859 31.2906 23.843C31.2906 20.9 28.8914 18.5852 25.9281 18.6484Z" fill="#89AFCE"/>
<path d="M3.2875 28.6672C4.62279 28.9955 5.99291 29.161 7.36797 29.1602C15.275 29.1602 21.9203 23.7617 23.8219 16.45C22.4023 13.0758 19.1258 10.6875 15.3062 10.6797C11.4867 10.6719 8.21094 13.0844 6.79687 16.4445C6.68594 16.4367 6.57344 16.432 6.46094 16.4297C2.89062 16.3899 0 19.1977 0 22.7422C0 25.1617 1.31719 27.4133 3.2875 28.6672Z" fill="#99BADC"/>
<path d="M15.4056 15.6477C13.5001 15.6477 11.7829 16.8133 11.0306 18.6164C10.9889 18.7218 10.9261 18.8175 10.8461 18.8978C10.7661 18.9781 10.6705 19.0413 10.5653 19.0834C10.4601 19.1255 10.3474 19.1457 10.2341 19.1428C10.1208 19.1399 10.0093 19.1139 9.90636 19.0664C9.69513 18.9664 9.53058 18.7887 9.44692 18.5705C9.36326 18.3522 9.36692 18.1101 9.45715 17.8945C10.4798 15.4508 12.8165 13.8633 15.4048 13.8633C15.6361 13.8701 15.8557 13.9669 16.0169 14.1329C16.1781 14.299 16.2683 14.5213 16.2683 14.7527C16.2683 14.9842 16.1781 15.2065 16.0169 15.3726C15.8557 15.5386 15.6361 15.6353 15.4048 15.6422L15.4056 15.6477Z" fill="#ACB4B9"/>
</g>
<defs>
<clipPath id="clip0_3002_3292">
<rect width="40" height="40" fill="white"/>
</clipPath>
</defs>
</svg>
